<?xml version="1.0" encoding="utf-8"?>
<!-- Generator: Adobe Illustrator 16.0.0, SVG Export Plug-In . SVG Version: 6.00 Build 0)  -->
<!DOCTYPE svg PUBLIC "-//W3C//DTD SVG 1.1//EN" "http://www.w3.org/Graphics/SVG/1.1/DTD/svg11.dtd">
<svg version="1.1" id="Capa_1" xmlns="http://www.w3.org/2000/svg" xmlns:xlink="http://www.w3.org/1999/xlink" x="0px" y="0px"
	 width="841.891px" height="242px" viewBox="0 180.14 841.891 242" enable-background="new 0 180.14 841.891 242"
	 xml:space="preserve">
<g id="Capa_1_1_" display="none">
	<g display="inline">
		
			<image overflow="visible" enable-background="new    " width="608" height="156" xlink:href="7E13E926.jpeg"  transform="matrix(1.3837 0 0 1.3786 7.320642e-004 190.6116)">
		</image>
	</g>
</g>
<g id="Capa_4">
	<polyline fill="none" stroke="#000000" stroke-width="3" stroke-miterlimit="10" points="24.765,198.081 24.765,406.134 
		828.121,406.134 	"/>
</g>
<g id="Capa_2">
	<path fill="none" stroke="#000000" stroke-width="2" stroke-miterlimit="10" d="M810.001,396.425c0,0-358.391,9.26-488.592-52.352
		c-130.201-61.61-140.268-133.557-189.262-133.557S69.061,396.92,37.517,396.423"/>
</g>
<g id="Capa_5">
	
		<linearGradient id="SVGID_1_" gradientUnits="userSpaceOnUse" x1="343.4451" y1="375.4514" x2="343.4451" y2="59.0304" gradientTransform="matrix(1 0 0 -1 24.9448 586.6392)">
		<stop  offset="0" style="stop-color:#BD3C36"/>
		<stop  offset="0.1502" style="stop-color:#BA3B36"/>
		<stop  offset="0.3116" style="stop-color:#AC3834"/>
		<stop  offset="0.4781" style="stop-color:#963330"/>
		<stop  offset="0.6483" style="stop-color:#782D2B"/>
		<stop  offset="0.8211" style="stop-color:#582221"/>
		<stop  offset="0.994" style="stop-color:#370A0F"/>
		<stop  offset="1" style="stop-color:#36080E"/>
	</linearGradient>
	<rect x="37.517" y="203.805" fill="url(#SVGID_1_)" width="661.745" height="197.315"/>
</g>
<g id="Capa_2_copia">
	<path fill="#FFFFFF" d="M810.001,396.425c0,0-358.391,9.26-488.592-52.352c-130.201-61.61-140.268-133.557-189.262-133.557
		S69.061,396.92,37.517,396.423V198.436h772.483V396.425z"/>
</g>
</svg>
