<?xml version="1.0" encoding="utf-8"?>
<!-- Generator: Adobe Illustrator 16.0.0, SVG Export Plug-In . SVG Version: 6.00 Build 0)  -->
<!DOCTYPE svg PUBLIC "-//W3C//DTD SVG 1.1//EN" "http://www.w3.org/Graphics/SVG/1.1/DTD/svg11.dtd">
<svg version="1.1" id="Capa_1" xmlns="http://www.w3.org/2000/svg" xmlns:xlink="http://www.w3.org/1999/xlink" x="0px" y="0px"
	 width="826.445px" height="232px" viewBox="0 0 826.445 232" enable-background="new 0 0 826.445 232" xml:space="preserve">
<g id="Capa_1_1_" display="none">
	<g display="inline">
	</g>
</g>
<g id="Capa_4">
	<polyline fill="none" stroke="#000000" stroke-width="3" stroke-miterlimit="10" points="29.463,10.725 29.463,217.438 
		828.792,217.438 	"/>
</g>
<g id="Capa_5">
	
		<linearGradient id="SVGID_1_" gradientUnits="userSpaceOnUse" x1="327.2249" y1="54.8989" x2="327.2249" y2="341.6317" gradientTransform="matrix(1 0 0 1 49.8896 -17.001)">
		<stop  offset="0" style="stop-color:#705195"/>
		<stop  offset="0.1303" style="stop-color:#6F5094"/>
		<stop  offset="0.2703" style="stop-color:#684C8B"/>
		<stop  offset="0.4148" style="stop-color:#5C467C"/>
		<stop  offset="0.5624" style="stop-color:#4E3D66"/>
		<stop  offset="0.7125" style="stop-color:#3E324A"/>
		<stop  offset="0.8623" style="stop-color:#29222D"/>
		<stop  offset="1" style="stop-color:#010002"/>
	</linearGradient>
	<rect x="36.846" y="31.188" fill="url(#SVGID_1_)" width="680.537" height="182.551"/>
</g>
<g id="Capa_2">
	<path fill="none" stroke="#000000" stroke-width="2" stroke-miterlimit="10" d="M36.846,205.686
		c34.897-2.688,57.046-164.431,95.301-165.102s91.273,77.182,161.745,108.725c70.47,31.545,151.005,56.414,514.765,56.395"/>
</g>
<g id="Capa_2_copia">
	<path fill="#FFFFFF" d="M808.657,205.701c-363.76,0.021-444.295-24.85-514.765-56.395
		c-70.472-31.543-123.49-109.396-161.745-108.725S71.745,202.998,36.846,205.686V23.805h771.812L808.657,205.701L808.657,205.701z"
		/>
</g>
</svg>
