<?xml version="1.0" encoding="utf-8"?>
<!-- Generator: Adobe Illustrator 16.0.0, SVG Export Plug-In . SVG Version: 6.00 Build 0)  -->
<!DOCTYPE svg PUBLIC "-//W3C//DTD SVG 1.1//EN" "http://www.w3.org/Graphics/SVG/1.1/DTD/svg11.dtd">
<svg version="1.1" id="Capa_1" xmlns="http://www.w3.org/2000/svg" xmlns:xlink="http://www.w3.org/1999/xlink" x="0px" y="0px"
	 width="841.891px" height="242px" viewBox="0 172.14 841.891 242" enable-background="new 0 172.14 841.891 242"
	 xml:space="preserve">
<g id="Capa_1_1_" display="none">
	<g display="inline">
		
			<image overflow="visible" enable-background="new    " width="608" height="139" xlink:href="79AE0426.jpeg"  transform="matrix(1.3837 0 0 1.3788 -0.0012 202.303)">
		</image>
	</g>
</g>
<g id="Capa_4">
	<polyline fill="none" stroke="#000000" stroke-width="3" stroke-miterlimit="10" points="29.463,190.725 29.463,397.437 
		828.792,397.437 	"/>
</g>
<g id="Capa_5">
	
		<linearGradient id="SVGID_1_" gradientUnits="userSpaceOnUse" x1="416.9348" y1="366.0559" x2="416.9348" y2="98.7259" gradientTransform="matrix(1 0 0 -1 24.9448 586.6392)">
		<stop  offset="0" style="stop-color:#3871B3"/>
		<stop  offset="0.1354" style="stop-color:#366DAD"/>
		<stop  offset="0.3347" style="stop-color:#30619C"/>
		<stop  offset="0.5733" style="stop-color:#275082"/>
		<stop  offset="0.8402" style="stop-color:#1A3661"/>
		<stop  offset="1" style="stop-color:#0E1D4B"/>
	</linearGradient>
	<rect x="77.114" y="211.188" fill="url(#SVGID_1_)" width="729.531" height="182.55"/>
</g>
<g id="Capa_2">
	<path fill="none" stroke="#000000" stroke-width="2" stroke-miterlimit="10" d="M36.846,385.685
		c34.898-2.686,57.046-164.43,95.301-165.101s91.274,77.181,161.745,108.725c70.47,31.544,151.005,56.413,514.765,56.395"/>
</g>
<g id="Capa_2_copia">
	<path fill="#FFFFFF" d="M808.657,385.702c-363.76,0.02-444.295-24.851-514.765-56.395
		c-70.471-31.544-123.49-109.396-161.745-108.725S71.745,382.999,36.846,385.685v-181.88h771.812L808.657,385.702L808.657,385.702z"
		/>
</g>
</svg>
