<?xml version="1.0" encoding="utf-8"?>
<!-- Generator: Adobe Illustrator 16.0.0, SVG Export Plug-In . SVG Version: 6.00 Build 0)  -->
<!DOCTYPE svg PUBLIC "-//W3C//DTD SVG 1.1//EN" "http://www.w3.org/Graphics/SVG/1.1/DTD/svg11.dtd">
<svg version="1.1" id="Capa_1" xmlns="http://www.w3.org/2000/svg" xmlns:xlink="http://www.w3.org/1999/xlink" x="0px" y="0px"
	 width="826.445px" height="232px" viewBox="15.445 175.14 826.445 232" enable-background="new 15.445 175.14 826.445 232"
	 xml:space="preserve">
<g id="Capa_1_1_" display="none">
	<g display="inline">
		
			<image overflow="visible" enable-background="new    " width="608" height="139" xlink:href="41C2C9A5.jpeg"  transform="matrix(1.3837 0 0 1.3788 -0.0012 202.303)">
		</image>
	</g>
</g>
<g id="Capa_4">
	<polyline fill="none" stroke="#000000" stroke-width="3" stroke-miterlimit="10" points="29.463,190.725 29.463,397.437 
		828.792,397.437 	"/>
</g>
<g id="Capa_5">
	
		<linearGradient id="SVGID_1_" gradientUnits="userSpaceOnUse" x1="352.1702" y1="368.7405" x2="352.1702" y2="82.0093" gradientTransform="matrix(1 0 0 -1 24.9448 586.6392)">
		<stop  offset="0" style="stop-color:#705195"/>
		<stop  offset="0.1303" style="stop-color:#6F5094"/>
		<stop  offset="0.2703" style="stop-color:#684C8B"/>
		<stop  offset="0.4148" style="stop-color:#5C467C"/>
		<stop  offset="0.5624" style="stop-color:#4E3D66"/>
		<stop  offset="0.7125" style="stop-color:#3E324A"/>
		<stop  offset="0.8623" style="stop-color:#29222D"/>
		<stop  offset="1" style="stop-color:#010002"/>
	</linearGradient>
	<rect x="36.846" y="211.188" fill="url(#SVGID_1_)" width="680.537" height="182.55"/>
</g>
<g id="Capa_2">
	<path fill="none" stroke="#000000" stroke-width="2" stroke-miterlimit="10" d="M36.846,385.685
		c34.898-2.686,57.046-164.43,95.301-165.101s91.274,77.181,161.745,108.725c70.47,31.544,151.005,56.413,514.765,56.395"/>
</g>
<g id="Capa_2_copia">
	<path fill="#FFFFFF" d="M808.657,385.702c-363.76,0.02-444.295-24.851-514.765-56.395
		c-70.471-31.544-123.49-109.396-161.745-108.725S71.745,382.999,36.846,385.685v-181.88h771.812L808.657,385.702L808.657,385.702z"
		/>
</g>
</svg>
