<?xml version="1.0" encoding="utf-8"?>
<!-- Generator: Adobe Illustrator 16.0.0, SVG Export Plug-In . SVG Version: 6.00 Build 0)  -->
<!DOCTYPE svg PUBLIC "-//W3C//DTD SVG 1.1//EN" "http://www.w3.org/Graphics/SVG/1.1/DTD/svg11.dtd">
<svg version="1.1" id="Capa_1" xmlns="http://www.w3.org/2000/svg" xmlns:xlink="http://www.w3.org/1999/xlink" x="0px" y="0px"
	 width="841.891px" height="242px" viewBox="0 0 841.891 242" enable-background="new 0 0 841.891 242" xml:space="preserve">
<g id="Capa_1_1_" display="none">
	<g display="inline">
	</g>
</g>
<g id="Capa_4">
	<polyline fill="none" stroke="#000000" stroke-width="3" stroke-miterlimit="10" points="29.463,20.725 29.463,227.438 
		828.791,227.438 	"/>
</g>
<g id="Capa_5">
	
		<linearGradient id="SVGID_1_" gradientUnits="userSpaceOnUse" x1="391.989" y1="67.584" x2="391.989" y2="334.9154" gradientTransform="matrix(1 0 0 1 49.8896 -17.001)">
		<stop  offset="0" style="stop-color:#3871B3"/>
		<stop  offset="0.1354" style="stop-color:#366DAD"/>
		<stop  offset="0.3347" style="stop-color:#30619C"/>
		<stop  offset="0.5733" style="stop-color:#275082"/>
		<stop  offset="0.8402" style="stop-color:#1A3661"/>
		<stop  offset="1" style="stop-color:#0E1D4B"/>
	</linearGradient>
	<rect x="77.114" y="41.188" fill="url(#SVGID_1_)" width="729.531" height="182.551"/>
</g>
<g id="Capa_2">
	<path fill="none" stroke="#000000" stroke-width="2" stroke-miterlimit="10" d="M36.846,215.686
		c34.898-2.688,57.046-164.431,95.301-165.102s91.274,77.182,161.745,108.725c70.47,31.545,151.005,56.414,514.765,56.395"/>
</g>
<g id="Capa_2_copia">
	<path fill="#FFFFFF" d="M808.656,215.701c-363.76,0.021-444.295-24.85-514.765-56.395
		c-70.471-31.543-123.49-109.396-161.745-108.725S71.745,212.998,36.846,215.686V33.805h771.812L808.656,215.701L808.656,215.701z"
		/>
</g>
</svg>
