<?xml version="1.0" encoding="utf-8"?>
<!-- Generator: Adobe Illustrator 16.0.0, SVG Export Plug-In . SVG Version: 6.00 Build 0)  -->
<!DOCTYPE svg PUBLIC "-//W3C//DTD SVG 1.1//EN" "http://www.w3.org/Graphics/SVG/1.1/DTD/svg11.dtd">
<svg version="1.1" id="Capa_1" xmlns="http://www.w3.org/2000/svg" xmlns:xlink="http://www.w3.org/1999/xlink" x="0px" y="0px"
	 width="682px" height="385px" viewBox="0 0 682 385" enable-background="new 0 0 682 385" xml:space="preserve">
<g id="Layer_1" display="none">
	<g display="inline">
	</g>
</g>
<g id="Layer_3">
	<polyline fill="#FFFFFF" stroke="#000000" stroke-width="3" stroke-miterlimit="10" points="19.414,17.516 19.414,377 672,377 	"/>
</g>
<g id="Layer_5">
	
		<linearGradient id="SVGID_1_" gradientUnits="userSpaceOnUse" x1="248.0789" y1="126.0916" x2="248.0787" y2="540.1114" gradientTransform="matrix(1 0 0 1 49.8896 -0.2813)">
		<stop  offset="0" style="stop-color:#7955A5"/>
		<stop  offset="0.1458" style="stop-color:#7653A1"/>
		<stop  offset="0.3024" style="stop-color:#6C4C94"/>
		<stop  offset="0.464" style="stop-color:#5D417E"/>
		<stop  offset="0.6291" style="stop-color:#473260"/>
		<stop  offset="0.7969" style="stop-color:#2A1E39"/>
		<stop  offset="0.9647" style="stop-color:#08060B"/>
		<stop  offset="1" style="stop-color:#000000"/>
	</linearGradient>
	<rect x="42.039" y="98.552" fill="url(#SVGID_1_)" width="511.858" height="276.207"/>
</g>
<g id="Layer_2">
	<path fill="none" stroke="#000000" stroke-width="2" stroke-miterlimit="10" d="M42.039,366.842
		c0,0,132.433,10.644,195.101-100.506s92.56-158.443,114.268-153.714c21.709,4.729,44.176,21.467,106.843,145.438
		c62.668,123.97,195.103,105.782,197.464,109.056"/>
</g>
<g id="Layer_2_copy">
	<path fill="#FFFFFF" d="M655.711,367.116c-2.364-3.271-134.796,14.914-197.464-109.059
		c-62.667-123.97-85.134-140.707-106.843-145.437c-21.708-4.729-51.6,42.563-114.268,153.714S42.039,366.842,42.039,366.842V24.414
		h613.673L655.711,367.116L655.711,367.116z"/>
</g>
</svg>
