<?xml version="1.0" encoding="utf-8"?>
<!-- Generator: Adobe Illustrator 16.0.0, SVG Export Plug-In . SVG Version: 6.00 Build 0)  -->
<!DOCTYPE svg PUBLIC "-//W3C//DTD SVG 1.1//EN" "http://www.w3.org/Graphics/SVG/1.1/DTD/svg11.dtd">
<svg version="1.1" id="Capa_1" xmlns="http://www.w3.org/2000/svg" xmlns:xlink="http://www.w3.org/1999/xlink" x="0px" y="0px"
	 width="682px" height="385px" viewBox="60.5 54.5 682 385" enable-background="new 60.5 54.5 682 385" xml:space="preserve">
<g id="Layer_1" display="none">
	<g display="inline">
		
			<image overflow="visible" enable-background="new    " width="605" height="162" xlink:href="A0D7100E.jpeg"  transform="matrix(1.3091 0 0 1.299 2.441406e-004 200.8689)">
		</image>
	</g>
</g>
<g id="Layer_3">
	<polyline fill="#FFFFFF" stroke="#000000" stroke-width="3" stroke-miterlimit="10" points="73.896,69.206 73.896,428.689 
		726.482,428.689 	"/>
</g>
<g id="Layer_5">
	
		<linearGradient id="SVGID_1_" gradientUnits="userSpaceOnUse" x1="327.5051" y1="425.8591" x2="327.505" y2="11.84" gradientTransform="matrix(1 0 0 -1 24.9448 603.3589)">
		<stop  offset="0" style="stop-color:#7955A5"/>
		<stop  offset="0.1458" style="stop-color:#7653A1"/>
		<stop  offset="0.3024" style="stop-color:#6C4C94"/>
		<stop  offset="0.464" style="stop-color:#5D417E"/>
		<stop  offset="0.6291" style="stop-color:#473260"/>
		<stop  offset="0.7969" style="stop-color:#2A1E39"/>
		<stop  offset="0.9647" style="stop-color:#08060B"/>
		<stop  offset="1" style="stop-color:#000000"/>
	</linearGradient>
	<rect x="96.521" y="150.241" fill="url(#SVGID_1_)" width="511.858" height="276.207"/>
</g>
<g id="Layer_2">
	<path fill="none" stroke="#000000" stroke-width="2" stroke-miterlimit="10" d="M96.521,418.531c0,0,132.432,10.643,195.1-100.506
		s92.56-158.443,114.268-153.714c21.709,4.729,44.176,21.467,106.843,145.438c62.668,123.97,195.102,105.783,197.464,109.056"/>
</g>
<g id="Layer_2_copy">
	<path fill="#FFFFFF" d="M710.193,418.805c-2.364-3.271-134.796,14.914-197.464-109.058
		C450.062,185.777,427.595,169.04,405.886,164.31c-21.708-4.729-51.6,42.564-114.268,153.714S96.521,418.531,96.521,418.531V76.103
		h613.673L710.193,418.805L710.193,418.805z"/>
</g>
</svg>
