<?xml version="1.0" encoding="utf-8"?>
<!-- Generator: Adobe Illustrator 16.0.0, SVG Export Plug-In . SVG Version: 6.00 Build 0)  -->
<!DOCTYPE svg PUBLIC "-//W3C//DTD SVG 1.1//EN" "http://www.w3.org/Graphics/SVG/1.1/DTD/svg11.dtd">
<svg version="1.1" id="Capa_1" xmlns="http://www.w3.org/2000/svg" xmlns:xlink="http://www.w3.org/1999/xlink" x="0px" y="0px"
	 width="841.891px" height="277px" viewBox="0 132.14 841.891 277" enable-background="new 0 132.14 841.891 277"
	 xml:space="preserve">
<g id="Capa_1_1_" display="none">
	<g display="inline">
		
			<image overflow="visible" enable-background="new    " width="608" height="131" xlink:href="E7A082F3.jpeg"  transform="matrix(1.3847 0 0 1.3694 -0.0012 207.9368)">
		</image>
	</g>
</g>
<g id="Capa_4">
	<polyline fill="none" stroke="#000000" stroke-width="2" stroke-miterlimit="10" points="13.356,152.799 13.356,389.711 
		826.107,389.711 	"/>
</g>
<g id="Capa_3">
	<path fill="none" stroke="#000000" stroke-width="2" stroke-miterlimit="10" d="M28.792,378.974c0,0,204.698,8.726,253.021-18.792
		c48.322-27.519,101.755-140.269,139.133-140.269s91.069,113.108,140.733,140.269s248.993,20.105,248.993,20.105"/>
</g>
<g id="Capa_5">
	
		<linearGradient id="SVGID_1_" gradientUnits="userSpaceOnUse" x1="396.0002" y1="359.345" x2="396.0002" y2="155.3082" gradientTransform="matrix(1 0 0 -1 24.9448 586.6392)">
		<stop  offset="0" style="stop-color:#3871B3"/>
		<stop  offset="0.5437" style="stop-color:#24528C"/>
		<stop  offset="1" style="stop-color:#00326B"/>
	</linearGradient>
	<rect x="104.631" y="211.063" fill="url(#SVGID_1_)" width="632.629" height="175.963"/>
</g>
<g id="Capa_3_copia">
	<path fill="#FFFFFF" d="M810.672,380.287c0,0-199.329,7.055-248.993-20.105S458.322,219.913,420.945,219.913
		s-90.812,112.75-139.133,140.269c-48.322,27.518-253.021,18.792-253.021,18.792V177.631h781.88V380.287z"/>
</g>
</svg>
