<?xml version="1.0" encoding="utf-8"?>
<!-- Generator: Adobe Illustrator 16.0.0, SVG Export Plug-In . SVG Version: 6.00 Build 0)  -->
<!DOCTYPE svg PUBLIC "-//W3C//DTD SVG 1.1//EN" "http://www.w3.org/Graphics/SVG/1.1/DTD/svg11.dtd">
<svg version="1.1" id="Capa_1" xmlns="http://www.w3.org/2000/svg" xmlns:xlink="http://www.w3.org/1999/xlink" x="0px" y="0px"
	 width="841.891px" height="268px" viewBox="0 0 841.891 268" enable-background="new 0 0 841.891 268" xml:space="preserve">
<g id="Capa_1_1_" display="none">
	<g display="inline">
	</g>
</g>
<g id="Capa_4">
	<polyline fill="none" stroke="#000000" stroke-width="2" stroke-miterlimit="10" points="13.356,21.088 13.356,258 826.107,258 	
		"/>
</g>
<g id="Capa_3">
	<path fill="none" stroke="#000000" stroke-width="2" stroke-miterlimit="10" d="M28.792,247.264c0,0,204.697,8.725,253.021-18.793
		c48.322-27.52,101.755-140.269,139.133-140.269s91.069,113.108,140.733,140.269c49.664,27.162,248.993,20.105,248.993,20.105"/>
</g>
<g id="Capa_5">
	
		<linearGradient id="SVGID_1_" gradientUnits="userSpaceOnUse" x1="407.7615" y1="107.2158" x2="407.7615" y2="402.5211" gradientTransform="matrix(1 0 0 1 49.8896 -17.001)">
		<stop  offset="0" style="stop-color:#BD3C36"/>
		<stop  offset="0.1623" style="stop-color:#B93B35"/>
		<stop  offset="0.3366" style="stop-color:#AC3733"/>
		<stop  offset="0.5165" style="stop-color:#94312E"/>
		<stop  offset="0.7002" style="stop-color:#762928"/>
		<stop  offset="0.8851" style="stop-color:#561D1D"/>
		<stop  offset="1" style="stop-color:#420F11"/>
	</linearGradient>
	<rect x="104.631" y="79.352" fill="url(#SVGID_1_)" width="706.041" height="175.963"/>
</g>
<g id="Capa_3_copia">
	<path fill="#FFFFFF" d="M810.672,248.576c0,0-199.329,7.055-248.993-20.105S458.322,88.202,420.945,88.202
		s-90.812,112.749-139.133,140.269c-48.321,27.518-253.021,18.793-253.021,18.793V45.92h781.88L810.672,248.576L810.672,248.576z"/>
</g>
</svg>
