<?xml version="1.0" encoding="utf-8"?>
<!-- Generator: Adobe Illustrator 16.0.0, SVG Export Plug-In . SVG Version: 6.00 Build 0)  -->
<!DOCTYPE svg PUBLIC "-//W3C//DTD SVG 1.1//EN" "http://www.w3.org/Graphics/SVG/1.1/DTD/svg11.dtd">
<svg version="1.1" id="Capa_1" xmlns="http://www.w3.org/2000/svg" xmlns:xlink="http://www.w3.org/1999/xlink" x="0px" y="0px"
	 width="841.891px" height="268px" viewBox="0 0 841.891 268" enable-background="new 0 0 841.891 268" xml:space="preserve">
<g id="Capa_1_1_" display="none">
	<g display="inline">
	</g>
</g>
<g id="Capa_4">
	<polyline fill="none" stroke="#000000" stroke-width="2" stroke-miterlimit="10" points="13.356,18.088 13.356,255 826.107,255 	
		"/>
</g>
<g id="Capa_3">
	<path fill="none" stroke="#000000" stroke-width="2" stroke-miterlimit="10" d="M28.792,244.264c0,0,204.697,8.725,253.021-18.793
		c48.322-27.52,101.755-140.269,139.133-140.269s91.069,113.108,140.733,140.269c49.664,27.162,248.993,20.105,248.993,20.105"/>
</g>
<g id="Capa_5">
	
		<linearGradient id="SVGID_1_" gradientUnits="userSpaceOnUse" x1="333.1365" y1="112.9404" x2="333.1365" y2="393.4802" gradientTransform="matrix(1 0 0 1 49.8896 -17.001)">
		<stop  offset="0" style="stop-color:#92B649"/>
		<stop  offset="0.1621" style="stop-color:#8FB448"/>
		<stop  offset="0.3362" style="stop-color:#84A945"/>
		<stop  offset="0.5159" style="stop-color:#729740"/>
		<stop  offset="0.6995" style="stop-color:#597F39"/>
		<stop  offset="0.8842" style="stop-color:#386331"/>
		<stop  offset="1" style="stop-color:#11522B"/>
	</linearGradient>
	<rect x="28.792" y="76.352" fill="url(#SVGID_1_)" width="708.468" height="175.963"/>
</g>
<g id="Capa_3_copia">
	<path fill="#FFFFFF" d="M810.672,245.576c0,0-199.329,7.055-248.993-20.105S458.322,85.202,420.945,85.202
		s-90.812,112.749-139.133,140.269c-48.321,27.518-253.021,18.793-253.021,18.793V42.92h781.88L810.672,245.576L810.672,245.576z"/>
</g>
</svg>
